<svg width="40" height="40" viewBox="0 0 40 40" fill="none" xmlns="http://www.w3.org/2000/svg">
<g clip-path="url(#clip0_178_23)">
<rect width="40" height="40" rx="20" fill="#DED4FF"/>
<path d="M20 7.4165C15.5242 7.4165 11.8854 11.0553 11.8854 15.5311C11.8854 19.9215 15.3192 23.4748 19.795 23.6286C19.9317 23.6115 20.0683 23.6115 20.1708 23.6286C20.205 23.6286 20.2221 23.6286 20.2562 23.6286C20.2733 23.6286 20.2733 23.6286 20.2904 23.6286C24.6637 23.4748 28.0975 19.9215 28.1146 15.5311C28.1146 11.0553 24.4758 7.4165 20 7.4165Z" fill="#8F70FF"/>
<path d="M28.6783 28.1732C23.912 24.9957 16.1391 24.9957 11.3387 28.1732C9.1691 29.6252 7.97327 31.5898 7.97327 33.6911C7.97327 35.7923 9.1691 43.6562 11.3216 45.0912C13.7133 46.6971 16.8566 47.5 19.9999 47.5C23.1433 47.5 26.2866 46.6971 28.6783 45.0912C30.8308 43.6392 32.0266 35.7752 32.0266 33.6569C32.0095 31.5557 30.8308 29.6082 28.6783 28.1732Z" fill="#8F70FF"/>
</g>
<defs>
<clipPath id="clip0_178_23">
<rect width="40" height="40" rx="20" fill="white"/>
</clipPath>
</defs>
</svg>
