<?xml version="1.0" encoding="UTF-8"?>
<!DOCTYPE svg PUBLIC "-//W3C//DTD SVG 1.0//EN" "http://www.w3.org/TR/2001/REC-SVG-20010904/DTD/svg10.dtd">
<!-- Creator: CorelDRAW 2019 (64-Bit) -->
<svg xmlns="http://www.w3.org/2000/svg" xml:space="preserve" width="252.672mm" height="129.77mm" version="1.0" style="shape-rendering:geometricPrecision; text-rendering:geometricPrecision; image-rendering:optimizeQuality; fill-rule:evenodd; clip-rule:evenodd"
viewBox="0 0 27924.34 14341.68"
 xmlns:xlink="http://www.w3.org/1999/xlink"
 xmlns:xodm="http://www.corel.com/coreldraw/odm/2003">
 <defs>
  <style type="text/css">
   <![CDATA[
    .fil4 {fill:#7246D2}
    .fil3 {fill:#7649D7}
    .fil2 {fill:#8350E9}
    .fil6 {fill:#925DFA}
    .fil1 {fill:#9D6CF9}
    .fil5 {fill:#A77BFA}
    .fil0 {fill:#8955F2;fill-rule:nonzero}
   ]]>
  </style>
 </defs>
 <g id="Слой_x0020_1">
  <metadata id="CorelCorpID_0Corel-Layer"/>
  <path class="fil0" d="M11322.33 6541.27l1125 0c103.54,0 187.99,-84.45 187.99,-187.99l0 -1620.54 660.81 -746.85 1775.56 2476.91c36.44,50.83 90.24,78.47 152.78,78.47l1338.33 0c72.44,0 134.53,-38.03 167.45,-102.56 32.92,-64.53 27.28,-137.12 -15.25,-195.77l-2365.5 -3262.72 2249.67 -2671.13c48.21,-57.24 58.23,-132.53 26.67,-200.39 -31.56,-67.86 -95.61,-108.7 -170.45,-108.7l-1308.17 0c-58,0 -107.92,23.5 -144.88,68.2l-2367.03 2862.93 0 -2743.15c0,-103.54 -84.45,-187.99 -187.99,-187.99l-1125 0c-103.54,0 -187.99,84.45 -187.99,187.99l0 6165.29c0,103.54 84.45,187.99 187.99,187.99zm7816.17 -6541.27l-1158.17 0c-103.54,0 -187.99,84.45 -187.99,187.99l0 6165.29c0,103.54 84.45,187.99 187.99,187.99l1158.17 0c103.54,0 187.99,-84.45 187.99,-187.99l0 -6165.29c0,-103.54 -84.45,-187.99 -187.99,-187.99zm1463 187.99l0 6165.29c0,103.54 84.45,187.99 187.99,187.99l1032.39 0c103.54,0 187.99,-84.45 187.99,-187.99l0 -3954.38 1642.24 3420.45c32.04,66.74 95.43,106.63 169.47,106.63l758.12 0c74.45,0 138.19,-40.38 169.98,-107.71l1606.2 -3400.87 21.34 3936.9c0.55,103.19 84.8,186.97 187.99,186.97l981.09 0c103.54,0 187.99,-84.45 187.99,-187.99l0 -6165.29c0,-103.54 -84.45,-187.99 -187.99,-187.99l-1269.78 0c-75.22,0 -139.57,41.3 -170.9,109.68l-1894.68 4134.47 -1883.04 -4134.08c-31.24,-68.59 -95.71,-110.06 -171.08,-110.06l-1367.32 0c-103.54,0 -187.99,84.45 -187.99,187.99zm-7025.79 14131.48l-24.8 0.09 0 0.61c-709.76,0 -1321.19,-174.96 -1760.66,-514.6 -501.67,-387.71 -681.16,-657.72 -725.42,-1212.58 -4.33,-54.23 12.38,-102.53 49.28,-142.49 36.9,-39.97 83.73,-60.46 138.12,-60.46l1024.99 0c86.42,0 159.46,56.21 181.66,139.74 117.79,443.41 656.84,616.37 1091.41,613.42l12.53 0.04 0 -0.61c496.25,0 1099.49,-310.53 1103.06,-863.07l0.02 -5.59 -0.61 0c0,-655.98 -663.9,-878.29 -1228.95,-881.52l-422.51 0.41c-51.8,0.06 -96.4,-18.38 -133.05,-54.99 -36.65,-36.61 -55.13,-81.2 -55.13,-133l0 -757.35c0,-103.54 84.45,-187.99 187.99,-187.99l422.7 0c509.51,21.23 979.57,-179.54 1000.29,-748.98 0,-491.31 -431.32,-814.79 -932.72,-818.99 -487.33,22.64 -830.2,152.83 -992.7,630.47 -26.38,77.56 -96.04,127.45 -177.96,127.45l-961.28 0c-55.16,0 -102.65,-21.12 -139.59,-62.08 -36.93,-40.95 -53.09,-90.34 -47.43,-145.2 122.67,-1190.93 1301.21,-1778.61 2412.01,-1768.39 1123.32,10.28 2315.13,576.71 2315.13,1869.19 -36.23,799.85 -384.97,1101.91 -1026.53,1419.43 739.44,259.08 1226.67,622.27 1218.16,1562.49 32.1,555.58 -314.32,1145.38 -740.56,1481.01 -439.82,346.32 -1077.57,508.64 -1786.85,513.54l-0.61 0zm6030.8 22.21c-733.37,-0.57 -1530.62,-292.43 -2042.72,-935.76 -405.31,-509.17 -687.97,-1214.45 -685.9,-2306.6l-0.61 0c0,-1110.47 274.47,-1974.36 725.99,-2588.48 469.24,-638.22 1214.33,-1015.67 2045.68,-1015.67 1037.29,0 2067.49,396.58 2344.26,1579.79 13.53,57.79 1.11,113.12 -35.76,159.64 -36.88,46.52 -87.96,71.21 -147.32,71.21l-1018.02 0c-61.26,0 -113.96,-26.42 -150.62,-75.5 -349.14,-467.41 -470.4,-542.27 -995.29,-543.77 -852.64,-2.43 -1374.08,1085.06 -1263.45,1928.13 385.05,-408.36 1031.36,-718.36 1607.49,-714.79 1237.18,0 2215.42,834.14 2217.09,2089.94 1.53,1149.17 -766.57,2345.38 -2600.82,2351.86zm-748.56 -3030.6c-238.8,224.34 -344.39,500.21 -343.65,770.17 1.55,559.52 460.3,1094.27 1138.02,1094.27 714.08,0 1144.8,-565.92 1132.75,-1133.63 -5.64,-265.61 -108.45,-531.88 -324.48,-740.54 -429.85,-415.17 -1163.19,-403.15 -1602.64,9.74zm6589.57 3008.45l-10.78 0.02 0 0.61c-1209.53,0 -2365.05,-455.16 -2521.48,-1719 -6.87,-55.41 8.75,-105.75 45.72,-147.61 36.97,-41.85 85.04,-63.52 140.89,-63.52l1107.16 0c75.33,0 139.76,41.43 171.02,109.96 196.54,430.74 477.32,619.92 1016.26,619.92 627.3,0 1085.07,-474.77 1077.29,-1102.11 -6.6,-532.29 -331.1,-1013.39 -1061.23,-1016.7 -431.33,0 -726.38,151.15 -963.7,432.74 -36.98,43.87 -86.36,66.84 -143.74,66.84l-1066.91 0c-55.17,0 -102.66,-21.12 -139.62,-62.1 -36.95,-40.98 -53.06,-90.39 -47.37,-145.27l367.05 -3541.25c9.98,-96.22 90.26,-168.6 186.98,-168.6l3746.39 0.01c103.54,0 187.99,84.45 187.99,187.99l0 990.07c0,103.54 -84.45,187.99 -187.99,187.99l-2682.36 0 -148.84 1252.94c300.43,-204.46 848.48,-385.41 1231.44,-384.76 1275.09,2.18 2172.64,900.38 2172.64,2192.92 0,1382.71 -1090.26,2304.08 -2476.81,2308.93z"/>
  <path class="fil1" d="M3235.98 2739.98c-568.57,214.43 -1517.27,575.07 -2076.09,800.88 -558.83,225.81 -727.77,316.77 -849.62,424 -121.83,107.21 -196.55,230.68 -240.42,326.53 -43.86,95.84 -56.86,164.06 -63.36,274.53 -6.5,110.46 -6.5,263.16 -6.5,940.57 0,677.41 0,1879.54 0,2517.96 0,638.43 0,713.15 21.12,815.49 21.12,102.35 63.36,232.32 146.2,344.4 82.85,112.09 206.32,206.31 937.33,638.42 731.02,432.12 2069.6,1202.12 2782.75,1609.87 713.15,407.75 800.87,453.23 912.95,479.22 112.1,25.99 248.56,32.49 393.14,-11.37 144.58,-43.85 297.28,-138.08 443.48,-227.43 146.2,-89.34 285.92,-173.81 922.71,-550.69 636.81,-376.88 1770.69,-1046.18 2371.76,-1408.44 601.06,-362.26 669.29,-417.49 726.15,-516.59 56.86,-99.09 102.34,-242.04 121.83,-355.76 19.5,-113.71 13,-198.18 9.75,-917.83 -3.25,-719.65 -3.25,-2074.48 -3.25,-2776.26 0,-701.78 0,-750.52 -16.25,-823.61 -16.25,-73.11 -48.73,-170.58 -125.08,-263.17 -76.34,-92.59 -196.56,-180.32 -385.01,-290.78 -188.44,-110.46 -445.1,-243.68 -968.2,-448.36 -523.08,-204.69 -1312.58,-480.85 -1816.18,-654.66 -503.59,-173.82 -721.26,-245.3 -951.94,-287.53 -230.68,-42.24 -474.35,-55.24 -700.15,-48.74 -225.81,6.5 -433.74,32.48 -631.93,79.59 -198.19,47.11 -386.63,115.33 -955.2,329.77z"/>
  <path class="fil2" d="M28.28 4405.95c-12.32,48.23 -18.09,97.31 -21.78,159.97 -6.5,110.46 -6.5,263.16 -6.5,940.57 0,677.41 0,1879.54 0,2517.96 0,638.43 0,713.15 21.12,815.49 21.12,102.35 63.36,232.32 146.2,344.4 82.85,112.09 206.32,206.31 937.33,638.42 731.02,432.12 2069.6,1202.12 2782.75,1609.87 713.15,407.75 800.87,453.23 912.95,479.22 112.1,25.99 248.56,32.49 393.14,-11.37 119.94,-36.38 245.46,-107.43 368.24,-181.6 30.46,-256.5 -0.12,-551.9 -28.77,-875.93 -51.99,-588.06 -97.46,-1270.35 -181.94,-1793.44 -84.47,-523.08 -207.91,-886.97 -279.4,-1111.15 -71.47,-224.17 -90.97,-308.65 -134.83,-396.38 -43.86,-87.72 -112.09,-178.68 -172.2,-240.42 -60.11,-61.73 -112.09,-94.22 -856.1,-524.71 -744.02,-430.49 -2180.08,-1258.98 -2938.71,-1694.35 -758.64,-435.37 -839.86,-477.61 -888.59,-533.65 -34.72,-39.94 -52.95,-86.9 -52.92,-142.91z"/>
  <path class="fil3" d="M5075.3 11926.03c38.55,-5.07 78.06,-13.37 118.2,-25.55 144.58,-43.85 297.28,-138.08 443.48,-227.43 146.2,-89.34 285.92,-173.81 922.71,-550.69 636.81,-376.88 1770.69,-1046.18 2371.76,-1408.44 601.06,-362.26 669.29,-417.49 726.15,-516.59 56.86,-99.09 102.34,-242.04 121.83,-355.76 19.5,-113.71 13,-198.18 9.75,-917.83 -3.25,-719.65 -3.25,-2074.48 -3.25,-2776.26 0,-606.88 0,-725.38 -10.51,-793.61 -6.82,87.86 -51.21,145.07 -177.93,233.16 -133.21,92.59 -357.39,219.31 -1083.53,653.05 -726.15,433.73 -1954.26,1174.49 -2602.44,1574.12 -648.17,399.63 -716.39,458.1 -770,532.83 -53.61,74.73 -92.59,165.7 -107.21,329.77 -14.62,164.08 -4.87,401.25 6.5,1133.9 11.37,732.65 24.36,1960.77 29.23,2625.18 1.6,218.11 2.32,375.49 5.27,490.15z"/>
  <path class="fil4" d="M4924.65 1780.49c336.68,0 646.53,64.62 892.62,173.02l557.23 0 0 643.29c0,450.84 -649.12,816.32 -1449.85,816.32 -800.73,0 -1449.85,-365.48 -1449.85,-816.32l0 -643.29 557.23 0c246.09,-108.41 555.94,-173.02 892.62,-173.02z"/>
  <ellipse class="fil5" cx="4924.65" cy="1953.52" rx="1449.85" ry="816.32"/>
  <path class="fil4" d="M2334.57 3100.25c336.68,0 646.53,64.62 892.62,173.02l557.23 0 0 643.29c0,450.84 -649.12,816.32 -1449.85,816.32 -800.73,0 -1449.85,-365.48 -1449.85,-816.32l0 -643.29 557.23 0c246.09,-108.41 555.94,-173.02 892.62,-173.02z"/>
  <ellipse class="fil6" cx="2334.57" cy="3273.27" rx="1449.85" ry="816.32"/>
  <path class="fil4" d="M2334.57 3100.25c336.68,0 646.53,64.62 892.62,173.02l557.23 0 0 643.29c0,450.84 -649.12,816.32 -1449.85,816.32 -800.73,0 -1449.85,-365.48 -1449.85,-816.32l0 -643.29 557.23 0c246.09,-108.41 555.94,-173.02 892.62,-173.02z"/>
  <ellipse class="fil5" cx="2334.57" cy="3273.27" rx="1449.85" ry="816.32"/>
  <path class="fil4" d="M7519.93 3100.25c336.68,0 646.53,64.62 892.62,173.02l557.23 0 0 643.29c0,450.84 -649.12,816.32 -1449.85,816.32 -800.73,0 -1449.85,-365.48 -1449.85,-816.32l0 -643.29 557.23 0c246.09,-108.41 555.94,-173.02 892.62,-173.02z"/>
  <ellipse class="fil5" cx="7519.93" cy="3273.27" rx="1449.85" ry="816.32"/>
  <path class="fil4" d="M4924.65 4489.53c336.68,0 646.53,64.62 892.62,173.02l557.23 0 0 643.29c0,450.84 -649.12,816.32 -1449.85,816.32 -800.73,0 -1449.85,-365.48 -1449.85,-816.32l0 -643.29 557.23 0c246.09,-108.41 555.94,-173.02 892.62,-173.02z"/>
  <ellipse class="fil5" cx="4924.65" cy="4662.56" rx="1449.85" ry="816.32"/>
 </g>
</svg>
