<?xml version="1.0" encoding="utf-8"?>
<!-- Generator: Adobe Illustrator 28.2.0, SVG Export Plug-In . SVG Version: 6.00 Build 0)  -->
<svg version="1.1" id="Слой_1" xmlns:xodm="http://www.corel.com/coreldraw/odm/2003"
	 xmlns="http://www.w3.org/2000/svg" xmlns:xlink="http://www.w3.org/1999/xlink" x="0px" y="0px" viewBox="0 0 322.3 321.7"
	 style="enable-background:new 0 0 322.3 321.7;" xml:space="preserve">
<style type="text/css">
	.st0{fill-rule:evenodd;clip-rule:evenodd;fill:#9D6CF9;}
	.st1{fill-rule:evenodd;clip-rule:evenodd;fill:#8350E9;}
	.st2{fill-rule:evenodd;clip-rule:evenodd;fill:#7649D7;}
	.st3{fill-rule:evenodd;clip-rule:evenodd;fill:#7246D2;}
	.st4{fill-rule:evenodd;clip-rule:evenodd;fill:#A77BFA;}
	.st5{fill-rule:evenodd;clip-rule:evenodd;fill:#925DFA;}
</style>
<g id="Слой_x0020_1">
	<path class="st0" d="M117.2,61.6C102.7,67.1,78.3,76.4,64,82.2C49.7,87.9,45.3,90.3,42.2,93c-3.1,2.7-5,5.9-6.2,8.4
		c-1.1,2.5-1.5,4.2-1.6,7c-0.2,2.8-0.2,6.7-0.2,24.1c0,17.4,0,48.2,0,64.6c0,16.4,0,18.3,0.5,20.9c0.5,2.6,1.6,6,3.7,8.8
		c2.1,2.9,5.3,5.3,24,16.4c18.8,11.1,53.1,30.8,71.4,41.3c18.3,10.5,20.5,11.6,23.4,12.3c2.9,0.7,6.4,0.8,10.1-0.3
		c3.7-1.1,7.6-3.5,11.4-5.8c3.7-2.3,7.3-4.5,23.7-14.1c16.3-9.7,45.4-26.8,60.8-36.1c15.4-9.3,17.2-10.7,18.6-13.3
		c1.5-2.5,2.6-6.2,3.1-9.1c0.5-2.9,0.3-5.1,0.3-23.5c-0.1-18.5-0.1-53.2-0.1-71.2s0-19.3-0.4-21.1c-0.4-1.9-1.2-4.4-3.2-6.8
		c-2-2.4-5-4.6-9.9-7.5c-4.8-2.8-11.4-6.3-24.8-11.5c-13.4-5.3-33.7-12.3-46.6-16.8c-12.9-4.5-18.5-6.3-24.4-7.4
		c-5.9-1.1-12.2-1.4-18-1.3c-5.8,0.2-11.1,0.8-16.2,2C136.7,54.4,131.8,56.1,117.2,61.6L117.2,61.6z"/>
	<path class="st1" d="M35,104.3c-0.3,1.2-0.5,2.5-0.6,4.1c-0.2,2.8-0.2,6.7-0.2,24.1c0,17.4,0,48.2,0,64.6c0,16.4,0,18.3,0.5,20.9
		c0.5,2.6,1.6,6,3.7,8.8c2.1,2.9,5.3,5.3,24,16.4c18.8,11.1,53.1,30.8,71.4,41.3c18.3,10.5,20.5,11.6,23.4,12.3
		c2.9,0.7,6.4,0.8,10.1-0.3c3.1-0.9,6.3-2.8,9.4-4.7c0.8-6.6,0-14.2-0.7-22.5c-1.3-15.1-2.5-32.6-4.7-46
		c-2.2-13.4-5.3-22.8-7.2-28.5c-1.8-5.7-2.3-7.9-3.5-10.2c-1.1-2.2-2.9-4.6-4.4-6.2c-1.5-1.6-2.9-2.4-22-13.5
		c-19.1-11-55.9-32.3-75.4-43.5c-19.5-11.2-21.5-12.3-22.8-13.7C35.4,107,35,105.8,35,104.3L35,104.3z"/>
	<path class="st2" d="M164.4,297.2c1-0.1,2-0.3,3-0.7c3.7-1.1,7.6-3.5,11.4-5.8c3.7-2.3,7.3-4.5,23.7-14.1
		c16.3-9.7,45.4-26.8,60.8-36.1c15.4-9.3,17.2-10.7,18.6-13.3c1.5-2.5,2.6-6.2,3.1-9.1c0.5-2.9,0.3-5.1,0.3-23.5
		c-0.1-18.5-0.1-53.2-0.1-71.2c0-15.6,0-18.6-0.3-20.4c-0.2,2.3-1.3,3.7-4.6,6c-3.4,2.4-9.2,5.6-27.8,16.8
		c-18.6,11.1-50.1,30.1-66.8,40.4c-16.6,10.3-18.4,11.7-19.7,13.7s-2.4,4.3-2.7,8.5c-0.4,4.2-0.1,10.3,0.2,29.1
		c0.3,18.8,0.6,50.3,0.7,67.3C164.3,290.2,164.3,294.3,164.4,297.2L164.4,297.2z"/>
	<path class="st3" d="M160.5,37c8.6,0,16.6,1.7,22.9,4.4h14.3v16.5c0,11.6-16.6,20.9-37.2,20.9s-37.2-9.4-37.2-20.9V41.4h14.3
		C144,38.7,151.9,37,160.5,37z"/>
	<ellipse class="st4" cx="160.5" cy="41.4" rx="37.2" ry="20.9"/>
	<path class="st3" d="M94.1,70.8c8.6,0,16.6,1.7,22.9,4.4h14.3v16.5c0,11.6-16.6,20.9-37.2,20.9s-37.2-9.4-37.2-20.9V75.3h14.3
		C77.5,72.5,85.5,70.8,94.1,70.8z"/>
	<ellipse class="st5" cx="94.1" cy="75.3" rx="37.2" ry="20.9"/>
	<path class="st3" d="M94.1,70.8c8.6,0,16.6,1.7,22.9,4.4h14.3v16.5c0,11.6-16.6,20.9-37.2,20.9s-37.2-9.4-37.2-20.9V75.3h14.3
		C77.5,72.5,85.5,70.8,94.1,70.8z"/>
	<ellipse class="st4" cx="94.1" cy="75.3" rx="37.2" ry="20.9"/>
	<path class="st3" d="M227.1,70.8c8.6,0,16.6,1.7,22.9,4.4h14.3v16.5c0,11.6-16.6,20.9-37.2,20.9s-37.2-9.4-37.2-20.9V75.3h14.3
		C210.5,72.5,218.5,70.8,227.1,70.8L227.1,70.8z"/>
	<ellipse class="st4" cx="227.1" cy="75.3" rx="37.2" ry="20.9"/>
	<path class="st3" d="M160.5,106.5c8.6,0,16.6,1.7,22.9,4.4h14.3v16.5c0,11.6-16.6,20.9-37.2,20.9s-37.2-9.4-37.2-20.9v-16.5h14.3
		C144,108.1,151.9,106.5,160.5,106.5z"/>
	<ellipse class="st4" cx="160.5" cy="110.9" rx="37.2" ry="20.9"/>
</g>
</svg>
